<svg xmlns="http://www.w3.org/2000/svg" viewBox="0 0 400 340"><defs><style>.cls-1{fill:none;}.cls-2{fill:#0891f0;}</style></defs><title>BigWing_icon_RGB</title><g id="Layer_2" data-name="Layer 2"><g id="Layer_1-2" data-name="Layer 1"><rect class="cls-1" width="400" height="340"/><path class="cls-2" d="M259.86,113H138.14a5.14,5.14,0,0,0-5.14,5.14v3.43a56.5,56.5,0,0,0,32.77,51.27A59.14,59.14,0,0,0,224.54,226h35.32a5.14,5.14,0,0,0,5.14-5.14V118.14A5.14,5.14,0,0,0,259.86,113ZM151.08,130.14h96.77v30.79H189.51A39.43,39.43,0,0,1,151.08,130.14Zm73.46,78.72a42,42,0,0,1-40.44-31.05c1.78.17,3.59.26,5.41.26h58.35v30.79Z"/></g></g></svg>